<?xml version="1.0" encoding="UTF-8"?>
<svg xmlns="http://www.w3.org/2000/svg" xmlns:xlink="http://www.w3.org/1999/xlink" width="368.94pt" height="222.763pt" viewBox="0 0 368.94 222.763" version="1.1">
<defs>
<clipPath id="clip1">
  <path d="M 255 4 L 368.941406 4 L 368.941406 122 L 255 122 Z M 255 4 "/>
</clipPath>
<clipPath id="clip2">
  <path d="M 168 212 L 185 212 L 185 222.761719 L 168 222.761719 Z M 168 212 "/>
</clipPath>
</defs>
<g id="surface1">
<g clip-path="url(#clip1)" clip-rule="nonzero">
<path style=" stroke:none;fill-rule:nonzero;fill:rgb(92.939758%,10.978699%,14.118958%);fill-opacity:1;" d="M 364.90625 4.671875 C 364.195312 4.671875 363.523438 4.863281 362.890625 5.253906 L 257.957031 67.597656 C 256.53125 68.417969 255.855469 69.695312 255.941406 71.425781 C 256.066406 73.203125 256.90625 74.394531 258.464844 75 L 283.371094 85.519531 L 350.78125 25.453125 L 296.300781 94.21875 L 296.300781 116.882812 C 296.300781 117.746094 296.542969 118.539062 297.023438 119.253906 C 297.507812 119.96875 298.148438 120.476562 298.945312 120.78125 C 299.328125 120.949219 299.789062 121.039062 300.332031 121.039062 C 301.640625 121.039062 302.667969 120.539062 303.425781 119.546875 L 318.683594 100.386719 L 347.25 112.402344 C 347.796875 112.617188 348.300781 112.726562 348.765625 112.726562 C 349.480469 112.726562 350.132812 112.554688 350.71875 112.210938 C 351.855469 111.511719 352.527344 110.542969 352.738281 109.285156 L 368.882812 9.542969 C 369.132812 7.808594 368.5625 6.425781 367.179688 5.382812 C 366.507812 4.90625 365.746094 4.671875 364.90625 4.671875 "/>
</g>
<path style=" stroke:none;fill-rule:nonzero;fill:rgb(96.328735%,51.261902%,7.341003%);fill-opacity:1;" d="M 186.84375 141.277344 C 182.828125 139.878906 178.367188 139.46875 173.269531 139.980469 L 172.707031 134.242188 C 178.621094 133.617188 183.855469 134.144531 188.640625 135.8125 Z M 186.84375 141.277344 "/>
<path style=" stroke:none;fill-rule:nonzero;fill:rgb(96.328735%,51.261902%,7.341003%);fill-opacity:1;" d="M 145.46875 148.425781 L 143.347656 143.082031 C 148.964844 140.722656 153.488281 139.003906 157.582031 137.667969 L 159.265625 143.171875 C 155.320312 144.457031 150.9375 146.121094 145.46875 148.425781 "/>
<path style=" stroke:none;fill-rule:nonzero;fill:rgb(96.328735%,51.261902%,7.341003%);fill-opacity:1;" d="M 283.816406 147.105469 L 279.84375 143.039062 C 282.566406 140.214844 285.105469 136.5625 288.078125 131.195312 L 292.945312 134.050781 C 289.722656 139.875 286.90625 143.902344 283.816406 147.105469 "/>
<path style=" stroke:none;fill-rule:nonzero;fill:rgb(96.328735%,51.261902%,7.341003%);fill-opacity:1;" d="M 117.851562 160.308594 L 115.808594 154.933594 C 120.671875 152.976562 125.449219 150.890625 129.542969 149.09375 L 131.742188 154.398438 C 127.609375 156.210938 122.789062 158.316406 117.851562 160.308594 "/>
<path style=" stroke:none;fill-rule:nonzero;fill:rgb(96.328735%,51.261902%,7.341003%);fill-opacity:1;" d="M 88.804688 169.414062 L 87.75 163.746094 C 92.261719 162.855469 96.894531 161.636719 101.914062 160.023438 L 103.585938 165.527344 C 98.359375 167.207031 93.527344 168.476562 88.804688 169.414062 "/>
<path style=" stroke:none;fill-rule:nonzero;fill:rgb(96.328735%,51.261902%,7.341003%);fill-opacity:1;" d="M 239.480469 158.34375 C 234.050781 158.207031 229.210938 158.199219 224.691406 158.324219 L 224.539062 152.558594 C 229.160156 152.429688 234.09375 152.433594 239.625 152.578125 Z M 239.480469 158.34375 "/>
<path style=" stroke:none;fill-rule:nonzero;fill:rgb(96.328735%,51.261902%,7.341003%);fill-opacity:1;" d="M 73.539062 171.21875 C 68.277344 171.390625 63.085938 171.046875 58.109375 170.203125 L 59.023438 164.507812 C 63.640625 165.292969 68.460938 165.609375 73.367188 165.449219 Z M 73.539062 171.21875 "/>
<path style=" stroke:none;fill-rule:nonzero;fill:rgb(96.328735%,51.261902%,7.341003%);fill-opacity:1;" d="M 195.769531 162.078125 L 194.304688 156.511719 C 196.894531 155.789062 199.597656 155.171875 202.464844 154.652344 C 201.769531 153.554688 201.023438 152.492188 200.242188 151.476562 C 199.527344 150.554688 198.792969 149.6875 198.0625 148.890625 L 202.128906 144.925781 C 202.96875 145.835938 203.804688 146.832031 204.621094 147.878906 C 206.039062 149.71875 207.332031 151.675781 208.488281 153.730469 C 208.785156 153.691406 209.085938 153.65625 209.382812 153.617188 L 209.648438 155.910156 C 210.070312 156.765625 210.472656 157.632812 210.855469 158.511719 L 209.984375 158.910156 L 210.035156 159.347656 C 209.566406 159.40625 209.097656 159.464844 208.632812 159.527344 L 205.734375 160.851562 C 205.613281 160.570312 205.488281 160.289062 205.359375 160.007812 C 201.921875 160.566406 198.710938 161.257812 195.769531 162.078125 "/>
<path style=" stroke:none;fill-rule:nonzero;fill:rgb(96.328735%,51.261902%,7.341003%);fill-opacity:1;" d="M 256.28125 158.125 C 255.742188 158.164062 255.203125 158.203125 254.640625 158.238281 L 254.328125 152.472656 C 259.984375 152.152344 264.5625 151.382812 268.335938 150.15625 L 270.023438 155.660156 C 266.179688 156.90625 261.683594 157.714844 256.28125 158.125 "/>
<path style=" stroke:none;fill-rule:nonzero;fill:rgb(96.328735%,51.261902%,7.341003%);fill-opacity:1;" d="M 171.707031 176.40625 L 167.480469 172.621094 C 170.863281 168.609375 175.011719 165.179688 179.816406 162.421875 L 182.542969 167.457031 C 178.3125 169.890625 174.664062 172.898438 171.707031 176.40625 "/>
<path style=" stroke:none;fill-rule:nonzero;fill:rgb(96.328735%,51.261902%,7.341003%);fill-opacity:1;" d="M 214.652344 190.265625 L 209.125 189.359375 C 209.746094 185.316406 209.910156 181.203125 209.617188 177.128906 C 209.5625 176.351562 209.492188 175.582031 209.402344 174.8125 L 214.96875 174.136719 C 215.066406 174.996094 215.148438 175.851562 215.207031 176.710938 C 215.527344 181.222656 215.34375 185.78125 214.652344 190.265625 "/>
<path style=" stroke:none;fill-rule:nonzero;fill:rgb(96.328735%,51.261902%,7.341003%);fill-opacity:1;" d="M 158.664062 203.613281 C 158.117188 201.859375 157.777344 200.035156 157.644531 198.191406 C 157.378906 194.453125 157.957031 190.566406 159.378906 186.652344 L 164.628906 188.660156 C 163.492188 191.796875 163.023438 194.859375 163.230469 197.769531 C 163.332031 199.15625 163.589844 200.53125 164 201.851562 Z M 158.664062 203.613281 "/>
<path style=" stroke:none;fill-rule:nonzero;fill:rgb(96.328735%,51.261902%,7.341003%);fill-opacity:1;" d="M 200.0625 218.917969 L 196.878906 214.167969 C 197.785156 213.53125 198.605469 212.785156 199.320312 211.957031 C 201.496094 209.441406 203.394531 206.492188 204.957031 203.1875 L 209.996094 205.714844 C 208.203125 209.496094 206.023438 212.886719 203.503906 215.796875 C 202.488281 216.96875 201.328125 218.015625 200.0625 218.917969 "/>
<g clip-path="url(#clip2)" clip-rule="nonzero">
<path style=" stroke:none;fill-rule:nonzero;fill:rgb(96.328735%,51.261902%,7.341003%);fill-opacity:1;" d="M 183.933594 222.761719 C 178.546875 222.242188 173.136719 220.21875 168.703125 217.0625 L 171.890625 212.316406 C 175.546875 214.917969 180.011719 216.589844 184.457031 217.015625 Z M 183.933594 222.761719 "/>
</g>
<path style=" stroke:none;fill-rule:nonzero;fill:rgb(12.75177%,11.317444%,11.334229%);fill-opacity:1;" d="M 217.375 0 L 217.375 48.234375 L 244.164062 48.234375 L 244.164062 37.414062 L 229.171875 37.414062 L 229.171875 29.136719 L 243.707031 29.136719 L 243.707031 18.316406 L 229.171875 18.316406 L 229.171875 10.820312 L 244.164062 10.820312 L 244.164062 0 Z M 217.375 0 "/>
<path style=" stroke:none;fill-rule:nonzero;fill:rgb(12.75177%,11.317444%,11.334229%);fill-opacity:1;" d="M 0 0 L 0 48.234375 L 26.59375 48.234375 L 26.59375 37.414062 L 12.320312 37.414062 L 12.320312 0 Z M 0 0 "/>
<path style=" stroke:none;fill-rule:nonzero;fill:rgb(12.75177%,11.317444%,11.334229%);fill-opacity:1;" d="M 45.039062 48.234375 L 57.359375 48.234375 L 57.359375 0 L 45.039062 0 Z M 45.039062 48.234375 "/>
<path style=" stroke:none;fill-rule:nonzero;fill:rgb(12.75177%,11.317444%,11.334229%);fill-opacity:1;" d="M 76 0 L 76 10.820312 L 85.515625 10.820312 L 85.515625 48.234375 L 97.835938 48.234375 L 97.835938 10.820312 L 107.285156 10.820312 L 107.285156 0 Z M 76 0 "/>
<path style=" stroke:none;fill-rule:nonzero;fill:rgb(12.75177%,11.317444%,11.334229%);fill-opacity:1;" d="M 122.148438 0 L 122.148438 10.820312 L 131.664062 10.820312 L 131.664062 48.234375 L 143.980469 48.234375 L 143.980469 10.820312 L 153.433594 10.820312 L 153.433594 0 Z M 122.148438 0 "/>
<path style=" stroke:none;fill-rule:nonzero;fill:rgb(12.75177%,11.317444%,11.334229%);fill-opacity:1;" d="M 0.300781 117.960938 L 0.300781 69.726562 L 26.632812 69.726562 L 26.632812 80.546875 L 12.101562 80.546875 L 12.101562 88.761719 L 26.113281 88.761719 L 26.113281 99.582031 L 12.101562 99.582031 L 12.101562 117.960938 Z M 0.300781 117.960938 "/>
<path style=" stroke:none;fill-rule:nonzero;fill:rgb(12.75177%,11.317444%,11.334229%);fill-opacity:1;" d="M 40.125 117.960938 L 40.125 69.726562 L 52.445312 69.726562 L 52.445312 107.140625 L 66.71875 107.140625 L 66.71875 117.960938 Z M 40.125 117.960938 "/>
<path style=" stroke:none;fill-rule:nonzero;fill:rgb(12.75177%,11.317444%,11.334229%);fill-opacity:1;" d="M 86.859375 117.960938 L 86.859375 100.429688 L 72.453125 69.726562 L 85.816406 69.726562 L 92.984375 89.085938 L 100.222656 69.726562 L 113.453125 69.726562 L 99.179688 100.429688 L 99.179688 117.960938 Z M 86.859375 117.960938 "/>
<path style=" stroke:none;fill-rule:nonzero;fill:rgb(12.75177%,11.317444%,11.334229%);fill-opacity:1;" d="M 165.855469 117.960938 L 165.855469 69.726562 L 181.109375 69.726562 C 185.195312 69.726562 188.28125 69.988281 190.363281 70.511719 C 192.449219 71.03125 194.320312 71.921875 195.96875 73.183594 C 197.882812 74.703125 199.347656 76.636719 200.371094 78.984375 C 201.390625 81.332031 201.902344 83.785156 201.902344 86.347656 C 201.902344 87.871094 201.695312 89.390625 201.28125 90.914062 C 200.867188 92.433594 200.226562 93.941406 199.359375 95.441406 C 198.488281 96.941406 197.242188 98.246094 195.613281 99.351562 C 193.980469 100.460938 192.082031 101.1875 189.910156 101.535156 L 203.007812 117.960938 L 188.929688 117.960938 L 177.785156 102.382812 L 177.652344 102.382812 L 177.652344 117.960938 Z M 177.652344 80.546875 L 177.652344 93.976562 L 182.019531 93.976562 C 183.714844 93.976562 185.152344 93.734375 186.324219 93.257812 C 187.496094 92.78125 188.332031 92.148438 188.832031 91.367188 C 189.332031 90.585938 189.667969 89.859375 189.84375 89.183594 C 190.015625 88.511719 190.101562 87.804688 190.101562 87.066406 C 190.101562 84.9375 189.386719 83.316406 187.953125 82.210938 C 186.519531 81.101562 184.585938 80.546875 182.152344 80.546875 Z M 177.652344 80.546875 "/>
<path style=" stroke:none;fill-rule:nonzero;fill:rgb(12.75177%,11.317444%,11.334229%);fill-opacity:1;" d="M 246.027344 83.808594 L 233.839844 83.808594 C 233.753906 83.15625 233.65625 82.65625 233.546875 82.308594 C 233.4375 81.960938 233.242188 81.492188 232.960938 80.90625 C 232.675781 80.320312 232.230469 79.875 231.625 79.570312 C 231.015625 79.265625 230.277344 79.113281 229.410156 79.113281 C 228.277344 79.113281 227.289062 79.472656 226.441406 80.191406 C 225.59375 80.90625 225.171875 81.808594 225.171875 82.894531 C 225.171875 84.285156 225.691406 85.351562 226.734375 86.089844 C 227.777344 86.828125 230.582031 88.21875 235.144531 90.261719 C 239.402344 92.171875 242.34375 94.203125 243.976562 96.355469 C 245.605469 98.503906 246.417969 101.078125 246.417969 104.078125 C 246.417969 105.949219 246.128906 107.71875 245.539062 109.390625 C 244.953125 111.0625 244.050781 112.628906 242.835938 114.085938 C 241.617188 115.539062 239.867188 116.703125 237.585938 117.570312 C 235.304688 118.441406 232.644531 118.875 229.601562 118.875 C 226.953125 118.875 224.574219 118.539062 222.464844 117.863281 C 220.355469 117.191406 218.675781 116.332031 217.414062 115.289062 C 216.152344 114.246094 215.121094 113.019531 214.320312 111.605469 C 213.511719 110.195312 212.960938 108.835938 212.65625 107.535156 C 212.351562 106.230469 212.199219 104.90625 212.199219 103.554688 L 212.199219 101.992188 L 224.453125 101.992188 C 224.453125 104.425781 224.996094 106.132812 226.082031 107.109375 C 227.167969 108.085938 228.300781 108.574219 229.472656 108.574219 C 230.863281 108.574219 231.992188 108.097656 232.863281 107.140625 C 233.730469 106.1875 234.167969 105.121094 234.167969 103.949219 C 234.167969 102.472656 233.609375 101.351562 232.503906 100.589844 C 231.394531 99.832031 228.800781 98.582031 224.714844 96.84375 C 223.671875 96.410156 222.800781 96.039062 222.105469 95.734375 C 221.410156 95.429688 220.421875 94.855469 219.140625 94.007812 C 217.859375 93.160156 216.828125 92.292969 216.046875 91.402344 C 215.261719 90.511719 214.546875 89.316406 213.894531 87.816406 C 213.242188 86.316406 212.917969 84.71875 212.917969 83.023438 C 212.917969 80.15625 213.773438 77.605469 215.492188 75.367188 C 217.207031 73.128906 219.328125 71.476562 221.847656 70.414062 C 224.367188 69.347656 227.015625 68.816406 229.800781 68.816406 C 232.316406 68.816406 234.742188 69.285156 237.066406 70.21875 C 239.390625 71.152344 241.3125 72.507812 242.835938 74.289062 C 244.789062 76.679688 245.855469 79.851562 246.027344 83.808594 "/>
<path style=" stroke:none;fill-rule:nonzero;fill:rgb(12.75177%,11.317444%,11.334229%);fill-opacity:1;" d="M 124.921875 117.960938 L 124.921875 69.726562 L 151.710938 69.726562 L 151.710938 80.546875 L 136.71875 80.546875 L 136.71875 88.042969 L 151.257812 88.042969 L 151.257812 98.863281 L 136.71875 98.863281 L 136.71875 107.140625 L 151.710938 107.140625 L 151.710938 117.960938 Z M 124.921875 117.960938 "/>
<path style=" stroke:none;fill-rule:nonzero;fill:rgb(12.75177%,11.317444%,11.334229%);fill-opacity:1;" d="M 172.335938 0 L 172.335938 48.234375 L 198.929688 48.234375 L 198.929688 37.414062 L 184.652344 37.414062 L 184.652344 0 Z M 172.335938 0 "/>
</g>
</svg>
